ffmpeg started on 2016-12-04 at 21:26:49
Report written to "Output/x264/results/ffmpeg/crowd_run_2160p50veryfast1500k.log"
Command line:
Tools/ffmpeg/ffmpeg -benchmark -y -i Input/y4m/crowd_run_2160p50.y4m -c:v libx264 -preset veryfast -b:v 1500k -an Output/x264/encoded/crowd_run_2160p50veryfast1500k.mkv
ffmpeg version N-82227-gdb23fde Copyright (c) 2000-2016 the FFmpeg developers
  built with gcc 5.4.0 (Ubuntu 5.4.0-6ubuntu1~16.04.2) 20160609
  configuration: --prefix=/home/jaroslav/ffmpeg_build --pkg-config-flags=--static --extra-cflags=-I/home/jaroslav/ffmpeg_build/include --extra-ldflags=-L/home/jaroslav/ffmpeg_build/lib --bindir=/home/jaroslav/bin --enable-gpl --enable-libass --enable-libfdk-aac --enable-libfreetype --enable-libmp3lame --enable-libopus --enable-libtheora --enable-libvorbis --enable-libvpx --enable-libx264 --enable-libx265 --enable-nvenc --enable-libmfx --enable-libxvid --enable-libgsm --enable-libopencore-amrnb --enable-version3 --enable-nonfree
  libavutil      55. 35.100 / 55. 35.100
  libavcodec     57. 66.101 / 57. 66.101
  libavformat    57. 57.100 / 57. 57.100
  libavdevice    57.  2.100 / 57.  2.100
  libavfilter     6. 66.100 /  6. 66.100
  libswscale      4.  3.100 /  4.  3.100
  libswresample   2.  4.100 /  2.  4.100
  libpostproc    54.  2.100 / 54.  2.100
Input #0, yuv4mpegpipe, from 'Input/y4m/crowd_run_2160p50.y4m':
  Duration: 00:00:10.00, start: 0.000000, bitrate: 4976642 kb/s
    Stream #0:0: Video: rawvideo (I420 / 0x30323449), yuv420p(progressive), 3840x2160, SAR 1:1 DAR 16:9, 50 fps, 50 tbr, 50 tbn, 50 tbc
[libx264 @ 0x31911c0] using SAR=1/1
[libx264 @ 0x31911c0] using cpu capabilities: MMX2 SSE2Fast SSSE3 SSE4.2 AVX FMA3 AVX2 LZCNT BMI2
[libx264 @ 0x31911c0] profile High, level 5.2
[libx264 @ 0x31911c0] 264 - core 148 - H.264/MPEG-4 AVC codec - Copyleft 2003-2016 - http://www.videolan.org/x264.html - options: cabac=1 ref=1 deblock=1:0:0 analyse=0x3:0x113 me=hex subme=2 psy=1 psy_rd=1.00:0.00 mixed_ref=0 me_range=16 chroma_me=1 trellis=0 8x8dct=1 cqm=0 deadzone=21,11 fast_pskip=1 chroma_qp_offset=0 threads=6 lookahead_threads=2 sliced_threads=0 nr=0 decimate=1 interlaced=0 bluray_compat=0 constrained_intra=0 bframes=3 b_pyramid=2 b_adapt=1 b_bias=0 direct=1 weightb=1 open_gop=0 weightp=1 keyint=250 keyint_min=25 scenecut=40 intra_refresh=0 rc_lookahead=10 rc=abr mbtree=1 bitrate=1500 ratetol=1.0 qcomp=0.60 qpmin=0 qpmax=69 qpstep=4 ip_ratio=1.40 aq=1:1.00
Output #0, matroska, to 'Output/x264/encoded/crowd_run_2160p50veryfast1500k.mkv':
  Metadata:
    encoder         : Lavf57.57.100
    Stream #0:0: Video: h264 (libx264) (H264 / 0x34363248), yuv420p, 3840x2160 [SAR 1:1 DAR 16:9], q=-1--1, 1500 kb/s, 50 fps, 1k tbn, 50 tbc
    Metadata:
      encoder         : Lavc57.66.101 libx264
    Side data:
      cpb: bitrate max/min/avg: 0/0/1500000 buffer size: 0 vbv_delay: -1
Stream mapping:
  Stream #0:0 -> #0:0 (rawvideo (native) -> h264 (libx264))
Press [q] to stop, [?] for help
frame=    8 fps=0.0 q=0.0 size=       0kB time=00:00:00.00 bitrate=N/A speed=   0x    frame=   13 fps= 12 q=0.0 size=       0kB time=00:00:00.00 bitrate=N/A speed=   0x    frame=   23 fps= 14 q=51.0 size=       1kB time=00:00:00.00 bitrate=5864.0kbits/s speed=0.000628x    frame=   29 fps= 14 q=66.0 size=       1kB time=00:00:00.12 bitrate=  48.5kbits/s speed=0.0568x    frame=   41 fps= 14 q=66.0 size=       1kB time=00:00:00.36 bitrate=  16.2kbits/s speed=0.126x    frame=   57 fps= 17 q=65.0 size=       1kB time=00:00:00.68 bitrate=   8.6kbits/s speed=0.202x    frame=   72 fps= 19 q=65.0 size=       1kB time=00:00:00.98 bitrate=   6.0kbits/s speed=0.253x    frame=   87 fps= 20 q=65.0 size=       1kB time=00:00:01.28 bitrate=   4.6kbits/s speed=0.292x    frame=   92 fps= 19 q=65.0 size=       1kB time=00:00:01.38 bitrate=   4.2kbits/s speed=0.283x    frame=   98 fps= 18 q=65.0 size=       1kB time=00:00:01.50 bitrate=   3.9kbits/s speed=0.278x    frame=  114 fps= 19 q=64.0 size=       1kB time=00:00:01.82 bitrate=   3.2kbits/s speed=0.307x    frame=  130 fps= 20 q=64.0 size=       1kB time=00:00:02.14 bitrate=   2.7kbits/s speed=0.331x    frame=  146 fps= 21 q=64.0 size=       1kB time=00:00:02.46 bitrate=   2.4kbits/s speed=0.351x    frame=  151 fps= 20 q=64.0 size=       1kB time=00:00:02.56 bitrate=   2.3kbits/s speed=0.34x    frame=  157 fps= 20 q=64.0 size=       1kB time=00:00:02.68 bitrate=   2.2kbits/s speed=0.334x    frame=  161 fps= 18 q=64.0 size=       1kB time=00:00:02.76 bitrate=   2.1kbits/s speed=0.313x    frame=  167 fps= 18 q=64.0 size=       1kB time=00:00:02.88 bitrate=   2.0kbits/s speed=0.308x    frame=  177 fps= 18 q=65.0 size=       1kB time=00:00:03.08 bitrate=   1.9kbits/s speed=0.312x    frame=  191 fps= 18 q=65.0 size=       1kB time=00:00:03.36 bitrate=   1.7kbits/s speed=0.318x    frame=  195 fps= 18 q=65.0 size=       1kB time=00:00:03.44 bitrate=   1.7kbits/s speed=0.31x    frame=  200 fps= 17 q=65.0 size=       1kB time=00:00:03.54 bitrate=   1.7kbits/s speed=0.302x    frame=  205 fps= 17 q=65.0 size=       1kB time=00:00:03.64 bitrate=   1.6kbits/s speed=0.293x    frame=  211 fps= 16 q=65.0 size=       1kB time=00:00:03.76 bitrate=   1.6kbits/s speed=0.287x    frame=  221 fps= 16 q=65.0 size=       1kB time=00:00:03.96 bitrate=   1.5kbits/s speed=0.284x    frame=  237 fps= 16 q=65.0 size=       1kB time=00:00:04.28 bitrate=   1.4kbits/s speed=0.296x    frame=  239 fps= 16 q=65.0 size=       1kB time=00:00:04.32 bitrate=   1.4kbits/s speed=0.286x    frame=  245 fps= 16 q=65.0 size=       1kB time=00:00:04.44 bitrate=   1.3kbits/s speed=0.284x    frame=  250 fps= 16 q=65.0 size=       1kB time=00:00:04.54 bitrate=   1.3kbits/s speed=0.282x    frame=  256 fps= 15 q=65.0 size=       1kB time=00:00:04.66 bitrate=   1.3kbits/s speed=0.28x    frame=  262 fps= 15 q=65.0 size=       1kB time=00:00:04.78 bitrate=   1.2kbits/s speed=0.278x    frame=  271 fps= 15 q=65.0 size=     987kB time=00:00:04.96 bitrate=1630.4kbits/s speed=0.275x    frame=  277 fps= 15 q=65.0 size=     987kB time=00:00:05.08 bitrate=1591.9kbits/s speed=0.274x    frame=  283 fps= 15 q=65.0 size=     987kB time=00:00:05.20 bitrate=1555.1kbits/s speed=0.269x    frame=  295 fps= 15 q=65.0 size=     987kB time=00:00:05.44 bitrate=1486.5kbits/s speed=0.274x    frame=  302 fps= 15 q=65.0 size=     987kB time=00:00:05.58 bitrate=1449.3kbits/s speed=0.274x    frame=  310 fps= 15 q=65.0 size=     987kB time=00:00:05.74 bitrate=1408.9kbits/s speed=0.274x    frame=  318 fps= 15 q=65.0 size=     987kB time=00:00:05.90 bitrate=1370.7kbits/s speed=0.273x    frame=  323 fps= 14 q=65.0 size=     987kB time=00:00:06.00 bitrate=1347.8kbits/s speed=0.268x    frame=  328 fps= 14 q=65.0 size=     987kB time=00:00:06.10 bitrate=1325.7kbits/s speed=0.266x    frame=  338 fps= 14 q=65.0 size=     987kB time=00:00:06.30 bitrate=1283.7kbits/s speed=0.269x    frame=  344 fps= 14 q=65.0 size=     987kB time=00:00:06.42 bitrate=1259.7kbits/s speed=0.267x    frame=  352 fps= 14 q=65.0 size=     987kB time=00:00:06.58 bitrate=1229.0kbits/s speed=0.264x    frame=  355 fps= 14 q=65.0 size=     987kB time=00:00:06.64 bitrate=1217.9kbits/s speed=0.258x    frame=  361 fps= 14 q=65.0 size=     987kB time=00:00:06.76 bitrate=1196.3kbits/s speed=0.257x    frame=  376 fps= 14 q=65.0 size=     987kB time=00:00:07.06 bitrate=1145.5kbits/s speed=0.264x    frame=  392 fps= 14 q=65.0 size=     987kB time=00:00:07.38 bitrate=1095.8kbits/s speed=0.27x    frame=  407 fps= 14 q=65.0 size=     987kB time=00:00:07.68 bitrate=1053.0kbits/s speed=0.273x    frame=  422 fps= 15 q=65.0 size=     987kB time=00:00:07.98 bitrate=1013.4kbits/s speed=0.278x    frame=  437 fps= 15 q=65.0 size=     987kB time=00:00:08.28 bitrate= 976.7kbits/s speed=0.283x    frame=  442 fps= 15 q=65.0 size=     987kB time=00:00:08.38 bitrate= 965.1kbits/s speed=0.282x    frame=  453 fps= 15 q=66.0 size=     987kB time=00:00:08.60 bitrate= 940.4kbits/s speed=0.282x    frame=  465 fps= 15 q=66.0 size=     987kB time=00:00:08.84 bitrate= 914.9kbits/s speed=0.285x    frame=  480 fps= 15 q=66.0 size=     987kB time=00:00:09.14 bitrate= 884.8kbits/s speed=0.29x    frame=  495 fps= 15 q=66.0 size=     987kB time=00:00:09.44 bitrate= 856.7kbits/s speed=0.295x    frame=  500 fps= 15 q=-1.0 Lsize=    1945kB time=00:00:09.94 bitrate=1602.4kbits/s speed=0.306x    
video:1940kB audio:0kB subtitle:0kB other streams:0kB global headers:0kB muxing overhead: 0.217624%
bench: utime=50.720s
bench: maxrss=1079980kB
[libx264 @ 0x31911c0] frame I:2     Avg QP:48.62  size: 59740
[libx264 @ 0x31911c0] frame P:126   Avg QP:50.98  size:  9124
[libx264 @ 0x31911c0] frame B:372   Avg QP:50.99  size:  1928
[libx264 @ 0x31911c0] consecutive B-frames:  0.8%  0.0%  0.0% 99.2%
[libx264 @ 0x31911c0] mb I  I16..4: 62.2% 37.8%  0.0%
[libx264 @ 0x31911c0] mb P  I16..4:  5.0%  1.6%  0.0%  P16..4:  6.0%  0.9%  0.2%  0.0%  0.0%    skip:86.3%
[libx264 @ 0x31911c0] mb B  I16..4:  0.0%  0.0%  0.0%  B16..8:  1.8%  0.0%  0.0%  direct: 0.3%  skip:97.8%  L0:49.5% L1:50.4% BI: 0.0%
[libx264 @ 0x31911c0] final ratefactor: 56.90
[libx264 @ 0x31911c0] 8x8 transform intra:26.6% inter:81.9%
[libx264 @ 0x31911c0] coded y,uvDC,uvAC intra: 7.0% 20.9% 1.1% inter: 0.1% 0.4% 0.0%
[libx264 @ 0x31911c0] i16 v,h,dc,p: 73% 20%  7%  1%
[libx264 @ 0x31911c0] i8 v,h,dc,ddl,ddr,vr,hd,vl,hu: 10% 11% 58%  4%  3%  3%  3%  4%  5%
[libx264 @ 0x31911c0] i4 v,h,dc,ddl,ddr,vr,hd,vl,hu: 21% 21% 24%  4%  8%  1% 10%  5%  6%
[libx264 @ 0x31911c0] i8c dc,h,v,p: 98%  1%  1%  0%
[libx264 @ 0x31911c0] Weighted P-Frames: Y:1.6% UV:0.0%
[libx264 @ 0x31911c0] kb/s:1588.98
